<svg width="610" height="350" viewBox="0 0 610 350" fill="none" xmlns="http://www.w3.org/2000/svg">
<g clip-path="url(#clip0_33_31)">
<path d="M132.17 310.679C149.69 310.679 163.894 296.496 163.894 279C163.894 261.504 149.69 247.321 132.17 247.321C114.65 247.321 100.447 261.504 100.447 279C100.447 296.496 114.65 310.679 132.17 310.679Z" fill="#F2F2F2"/>
<path d="M137.328 306.043C154.849 306.043 169.052 291.86 169.052 274.364C169.052 256.869 154.849 242.685 137.328 242.685C119.808 242.685 105.605 256.869 105.605 274.364C105.605 291.86 119.808 306.043 137.328 306.043Z" fill="#EBC8ED"/>
<path d="M555.381 239.312H162.877V240.382H555.381V239.312Z" fill="#3F3D56"/>
<path d="M366.155 9.97381H226.841V7.10645H163.67V9.97381H23.7806C22.5431 9.97381 21.3177 10.2172 20.1743 10.6901C19.031 11.163 17.9922 11.8562 17.1171 12.73C16.242 13.6039 15.5479 14.6412 15.0743 15.783C14.6007 16.9247 14.357 18.1484 14.357 19.3842V209.881C14.357 212.377 15.3498 214.77 17.1171 216.535C18.8844 218.3 21.2813 219.291 23.7806 219.291H366.155C368.655 219.291 371.052 218.3 372.819 216.535C374.586 214.77 375.579 212.377 375.579 209.881V19.3842C375.579 18.1484 375.335 16.9247 374.862 15.783C374.388 14.6412 373.694 13.6039 372.819 12.73C371.944 11.8562 370.905 11.163 369.762 10.6901C368.618 10.2172 367.393 9.97381 366.155 9.97381V9.97381Z" fill="#2F2E37"/>
<path d="M362.945 26.6045H26.9911V215.85H362.945V26.6045Z" fill="#058CAA"/>
<path d="M194.681 21.4432C196.584 21.4432 198.127 19.9027 198.127 18.0024C198.127 16.102 196.584 14.5615 194.681 14.5615C192.778 14.5615 191.235 16.102 191.235 18.0024C191.235 19.9027 192.778 21.4432 194.681 21.4432Z" fill="#EBC8ED"/>
<path opacity="0.1" d="M266.868 215.85H26.9913V26.6046L266.868 215.85Z" fill="#013A46"/>
<path d="M79.5579 201.689C97.3927 201.689 111.851 187.251 111.851 169.441C111.851 151.632 97.3927 137.194 79.5579 137.194C61.723 137.194 47.265 151.632 47.265 169.441C47.265 187.251 61.723 201.689 79.5579 201.689Z" fill="#F2F2F2"/>
<path d="M304.45 128.666H273.068V135.214H304.45V128.666Z" fill="#3F3D56"/>
<path d="M342.389 77.6842H235.129V80.4906H342.389V77.6842Z" fill="#3F3D56"/>
<path d="M342.389 86.5709H235.129V89.3773H342.389V86.5709Z" fill="#3F3D56"/>
<path d="M342.389 95.4578H235.129V98.2641H342.389V95.4578Z" fill="#3F3D56"/>
<path d="M342.389 104.344H235.129V107.151H342.389V104.344Z" fill="#3F3D56"/>
<path d="M342.389 113.231H235.129V116.038H342.389V113.231Z" fill="#3F3D56"/>
<path d="M342.389 30.4438H329.274V43.5402H342.389V30.4438Z" fill="#F2F2F2"/>
<path d="M348.478 49.6206H332.553V33.7179H348.478V49.6206ZM333.245 48.9292H347.786V34.4093H333.245V48.9292Z" fill="#3F3D56"/>
<path d="M385.012 212.409H352.225V210.05C352.225 209.989 352.213 209.928 352.189 209.872C352.166 209.815 352.131 209.763 352.088 209.72C352.044 209.676 351.993 209.642 351.936 209.618C351.879 209.595 351.818 209.583 351.757 209.583H340.515C340.454 209.583 340.393 209.595 340.336 209.618C340.279 209.642 340.228 209.676 340.184 209.72C340.141 209.763 340.106 209.815 340.083 209.872C340.059 209.928 340.047 209.989 340.047 210.05V212.409H333.021V210.05C333.021 209.989 333.009 209.928 332.986 209.872C332.962 209.815 332.928 209.763 332.884 209.72C332.841 209.676 332.789 209.642 332.732 209.618C332.675 209.595 332.614 209.583 332.553 209.583H321.312C321.25 209.583 321.189 209.595 321.132 209.618C321.076 209.642 321.024 209.676 320.98 209.72C320.937 209.763 320.902 209.815 320.879 209.872C320.855 209.928 320.843 209.989 320.843 210.05V212.409H313.817V210.05C313.817 209.989 313.805 209.928 313.782 209.872C313.758 209.815 313.724 209.763 313.68 209.72C313.637 209.676 313.585 209.642 313.528 209.618C313.472 209.595 313.411 209.583 313.349 209.583H302.108C302.046 209.583 301.985 209.595 301.929 209.618C301.872 209.642 301.82 209.676 301.777 209.72C301.733 209.763 301.699 209.815 301.675 209.872C301.652 209.928 301.64 209.989 301.64 210.05V212.409H294.614V210.05C294.614 209.989 294.602 209.928 294.578 209.872C294.555 209.815 294.52 209.763 294.477 209.72C294.433 209.676 294.381 209.642 294.325 209.618C294.268 209.595 294.207 209.583 294.145 209.583H282.904C282.843 209.583 282.782 209.595 282.725 209.618C282.668 209.642 282.616 209.676 282.573 209.72C282.529 209.763 282.495 209.815 282.471 209.872C282.448 209.928 282.436 209.989 282.436 210.05V212.409H275.41V210.05C275.41 209.989 275.398 209.928 275.374 209.872C275.351 209.815 275.316 209.763 275.273 209.72C275.229 209.676 275.178 209.642 275.121 209.618C275.064 209.595 275.003 209.583 274.942 209.583H263.7C263.639 209.583 263.578 209.595 263.521 209.618C263.464 209.642 263.413 209.676 263.369 209.72C263.326 209.763 263.291 209.815 263.268 209.872C263.244 209.928 263.232 209.989 263.232 210.05V212.409H256.206V210.05C256.206 209.989 256.194 209.928 256.171 209.872C256.147 209.815 256.113 209.763 256.069 209.72C256.026 209.676 255.974 209.642 255.917 209.618C255.86 209.595 255.799 209.583 255.738 209.583H244.497C244.435 209.583 244.374 209.595 244.317 209.618C244.261 209.642 244.209 209.676 244.165 209.72C244.122 209.763 244.087 209.815 244.064 209.872C244.04 209.928 244.028 209.989 244.028 210.05V212.409H237.002V210.05C237.002 209.989 236.99 209.928 236.967 209.872C236.943 209.815 236.909 209.763 236.865 209.72C236.822 209.676 236.77 209.642 236.713 209.618C236.656 209.595 236.596 209.583 236.534 209.583H148.478C148.416 209.583 148.355 209.595 148.299 209.618C148.242 209.642 148.19 209.676 148.147 209.72C148.103 209.763 148.069 209.815 148.045 209.872C148.022 209.928 148.009 209.989 148.009 210.05V212.409H140.984V210.05C140.984 209.989 140.972 209.928 140.948 209.872C140.924 209.815 140.89 209.763 140.846 209.72C140.803 209.676 140.751 209.642 140.695 209.618C140.638 209.595 140.577 209.583 140.515 209.583H129.274C129.213 209.583 129.152 209.595 129.095 209.618C129.038 209.642 128.986 209.676 128.943 209.72C128.899 209.763 128.865 209.815 128.841 209.872C128.818 209.928 128.806 209.989 128.806 210.05V212.409H121.78V210.05C121.78 209.989 121.768 209.928 121.744 209.872C121.721 209.815 121.686 209.763 121.643 209.72C121.599 209.676 121.548 209.642 121.491 209.618C121.434 209.595 121.373 209.583 121.312 209.583H110.07C110.009 209.583 109.948 209.595 109.891 209.618C109.834 209.642 109.783 209.676 109.739 209.72C109.696 209.763 109.661 209.815 109.638 209.872C109.614 209.928 109.602 209.989 109.602 210.05V212.409H102.576V210.05C102.576 209.989 102.564 209.928 102.541 209.872C102.517 209.815 102.482 209.763 102.439 209.72C102.395 209.676 102.344 209.642 102.287 209.618C102.23 209.595 102.169 209.583 102.108 209.583H90.8665C90.805 209.583 90.7441 209.595 90.6873 209.618C90.6305 209.642 90.5788 209.676 90.5353 209.72C90.4918 209.763 90.4573 209.815 90.4338 209.872C90.4103 209.928 90.3982 209.989 90.3982 210.05V212.409H83.3724V210.05C83.3724 209.989 83.3603 209.928 83.3368 209.872C83.3132 209.815 83.2787 209.763 83.2352 209.72C83.1917 209.676 83.1401 209.642 83.0833 209.618C83.0265 209.595 82.9656 209.583 82.904 209.583H71.6628C71.6013 209.583 71.5404 209.595 71.4835 209.618C71.4267 209.642 71.3751 209.676 71.3316 209.72C71.2881 209.763 71.2536 209.815 71.2301 209.872C71.2065 209.928 71.1944 209.989 71.1944 210.05V212.409H64.1687V210.05C64.1687 209.989 64.1565 209.928 64.133 209.872C64.1095 209.815 64.075 209.763 64.0315 209.72C63.988 209.676 63.9363 209.642 63.8795 209.618C63.8227 209.595 63.7618 209.583 63.7003 209.583H52.459C52.3975 209.583 52.3366 209.595 52.2798 209.618C52.223 209.642 52.1713 209.676 52.1278 209.72C52.0843 209.763 52.0498 209.815 52.0263 209.872C52.0028 209.928 51.9907 209.989 51.9907 210.05V212.409H44.9649V210.05C44.9649 209.989 44.9528 209.928 44.9292 209.872C44.9057 209.815 44.8712 209.763 44.8277 209.72C44.7842 209.676 44.7326 209.642 44.6758 209.618C44.6189 209.595 44.558 209.583 44.4965 209.583H33.2553C33.1938 209.583 33.1329 209.595 33.076 209.618C33.0192 209.642 32.9676 209.676 32.9241 209.72C32.8806 209.763 32.8461 209.815 32.8225 209.872C32.799 209.928 32.7869 209.989 32.7869 210.05V212.409H11.2412C8.25987 212.409 5.40062 213.592 3.29248 215.697C1.18434 217.802 2.84034e-06 220.658 0 223.635V228.711C8.52103e-06 231.688 1.18435 234.543 3.29249 236.648C5.40063 238.753 8.25987 239.936 11.2412 239.936H385.012C387.993 239.936 390.852 238.753 392.961 236.648C395.069 234.543 396.253 231.688 396.253 228.711V223.635C396.253 220.658 395.069 217.802 392.961 215.697C390.852 213.592 387.993 212.409 385.012 212.409Z" fill="#2F2E37"/>
<path d="M87.3746 189.583C79.3256 189.583 71.4574 187.199 64.7649 182.734C58.0725 178.268 52.8563 171.921 49.7761 164.496C46.6959 157.07 45.89 148.899 47.4603 141.015C49.0305 133.132 52.9065 125.891 58.598 120.208C64.2894 114.524 71.5408 110.654 79.4351 109.086C87.3294 107.518 95.5121 108.322 102.948 111.398C110.385 114.474 116.741 119.683 121.212 126.366C125.684 133.049 128.071 140.906 128.071 148.944C128.059 159.718 123.767 170.048 116.138 177.666C108.508 185.285 98.1641 189.571 87.3746 189.583ZM87.3746 109.374C79.5374 109.374 71.8763 111.695 65.3599 116.043C58.8436 120.391 53.7647 126.571 50.7656 133.801C47.7664 141.032 46.9817 148.988 48.5106 156.663C50.0396 164.339 53.8135 171.39 59.3552 176.924C64.8969 182.458 71.9575 186.226 79.6441 187.753C87.3306 189.28 95.2979 188.496 102.539 185.501C109.779 182.506 115.968 177.435 120.322 170.927C124.676 164.42 127 156.77 127 148.944C126.988 138.453 122.809 128.395 115.381 120.977C107.952 113.559 97.8802 109.386 87.3746 109.374V109.374Z" fill="#3F3D56"/>
<path d="M450.428 17.4016H313.881V18.4711H450.428V17.4016Z" fill="#3F3D56"/>
<path d="M610 299.736H217.495V300.805H610V299.736Z" fill="#3F3D56"/>
<path d="M239.718 348.931H103.171V350H239.718V348.931Z" fill="#3F3D56"/>
<path d="M267.203 294.098H252.21V309.071H267.203V294.098Z" fill="#EBC8ED"/>
<path d="M276.306 300.515H258.1V282.334H276.306V300.515ZM258.892 299.724H275.515V283.125H258.892V299.724Z" fill="#3F3D56"/>
<path d="M441.233 11.7639H426.24V26.7362H441.233V11.7639Z" fill="#B094AC"/>
<path d="M450.336 18.1806H432.13V0H450.336V18.1806ZM432.922 17.3902H449.545V0.790463H432.922V17.3902Z" fill="#3F3D56"/>
<path d="M592.238 294.098H577.244V309.071H592.238V294.098Z" fill="#EBC8ED"/>
<path d="M601.341 300.515H583.135V282.334H601.341V300.515ZM583.926 299.724H600.549V283.125H583.926V299.724Z" fill="#3F3D56"/>
<path d="M566.091 124.034H564.817V89.1901C564.817 86.5418 564.295 83.9195 563.28 81.4728C562.265 79.026 560.778 76.8029 558.902 74.9303C557.027 73.0576 554.801 71.5722 552.351 70.5587C549.901 69.5453 547.275 69.0237 544.623 69.0237H470.698C468.046 69.0237 465.42 69.5453 462.97 70.5587C460.52 71.5722 458.293 73.0576 456.418 74.9303C454.543 76.8029 453.055 79.026 452.04 81.4728C451.026 83.9195 450.503 86.5418 450.503 89.1901V280.344C450.503 282.992 451.026 285.615 452.04 288.061C453.055 290.508 454.543 292.731 456.418 294.604C458.293 296.477 460.52 297.962 462.97 298.975C465.42 299.989 468.046 300.511 470.698 300.511H544.623C547.275 300.511 549.901 299.989 552.351 298.975C554.801 297.962 557.027 296.477 558.903 294.604C560.778 292.731 562.265 290.508 563.28 288.061C564.295 285.615 564.817 282.992 564.817 280.344V148.836H566.091V124.034Z" fill="#2F2E37"/>
<path d="M560.517 90.3754V281.251C560.518 285.245 558.929 289.076 556.101 291.901C553.273 294.726 549.438 296.313 545.438 296.314H471.156C467.157 296.313 463.321 294.726 460.493 291.901C457.665 289.076 456.077 285.245 456.077 281.251V90.3754C456.078 86.382 457.667 82.5522 460.494 79.7284C463.322 76.9046 467.157 75.3181 471.156 75.3176H480.169C479.725 76.404 479.556 77.5826 479.676 78.7496C479.796 79.9166 480.202 81.0362 480.857 82.0099C481.513 82.9835 482.398 83.7812 483.435 84.3327C484.471 84.8842 485.628 85.1727 486.803 85.1726H529.154C530.329 85.1727 531.486 84.8842 532.523 84.3327C533.559 83.7812 534.445 82.9835 535.1 82.0099C535.755 81.0363 536.161 79.9166 536.281 78.7496C536.401 77.5826 536.232 76.404 535.789 75.3176H545.438C549.437 75.3181 553.272 76.9046 556.1 79.7284C558.928 82.5522 560.516 86.382 560.517 90.3754V90.3754Z" fill="#058CAA"/>
<path d="M519.361 201.173H497.233V207.721H519.361V201.173Z" fill="#3F3D56"/>
<path d="M546.113 150.191H470.482V152.997H546.113V150.191Z" fill="#3F3D56"/>
<path d="M546.113 159.077H470.482V161.884H546.113V159.077Z" fill="#3F3D56"/>
<path d="M546.113 167.964H470.482V170.77H546.113V167.964Z" fill="#3F3D56"/>
<path d="M546.113 176.851H470.482V179.657H546.113V176.851Z" fill="#3F3D56"/>
<path d="M546.113 185.738H470.482V188.544H546.113V185.738Z" fill="#3F3D56"/>
<path d="M510.939 112.922H497.824V126.019H510.939V112.922Z" fill="#F2F2F2"/>
<path d="M502.845 116.197V132.1H518.77V116.197H502.845ZM518.079 131.41H503.536V116.887H518.079V131.41Z" fill="#3F3D56"/>
<path opacity="0.1" d="M560.517 260.867V281.25C560.518 285.245 558.929 289.076 556.101 291.901C553.273 294.726 549.438 296.313 545.438 296.314H471.156C467.157 296.313 463.321 294.726 460.493 291.901C457.665 289.076 456.077 285.245 456.077 281.25V178.471L518.659 227.842L519.73 228.687L531.371 237.868L532.458 238.729L560.517 260.867Z" fill="#013A46"/>
<path d="M501.871 290.128C514.845 290.128 525.362 279.626 525.362 266.671C525.362 253.716 514.845 243.213 501.871 243.213C488.898 243.213 478.381 253.716 478.381 266.671C478.381 279.626 488.898 290.128 501.871 290.128Z" fill="#F2F2F2"/>
<path d="M171.444 350C162.231 350 153.223 347.272 145.562 342.16C137.901 337.048 131.93 329.782 128.404 321.282C124.878 312.781 123.956 303.427 125.753 294.403C127.551 285.379 131.988 277.09 138.503 270.584C145.018 264.078 153.319 259.647 162.356 257.852C171.393 256.057 180.76 256.978 189.272 260.499C197.785 264.02 205.061 269.983 210.18 277.633C215.299 285.284 218.031 294.278 218.031 303.479C218.017 315.813 213.104 327.638 204.371 336.359C195.637 345.08 183.796 349.986 171.444 350ZM171.444 258.027C162.442 258.027 153.642 260.693 146.157 265.687C138.672 270.682 132.839 277.78 129.394 286.085C125.949 294.391 125.047 303.529 126.803 312.346C128.56 321.163 132.895 329.262 139.26 335.618C145.626 341.975 153.736 346.303 162.565 348.057C171.394 349.811 180.546 348.911 188.862 345.471C197.179 342.031 204.288 336.205 209.289 328.731C214.291 321.256 216.96 312.468 216.96 303.479C216.946 291.429 212.147 279.876 203.614 271.355C195.081 262.834 183.512 258.041 171.444 258.027V258.027Z" fill="#3F3D56"/>
<path d="M508.795 284.764C502.97 284.764 497.276 283.039 492.433 279.807C487.59 276.576 483.815 271.983 481.586 266.609C479.357 261.235 478.773 255.321 479.91 249.616C481.046 243.911 483.851 238.671 487.97 234.558C492.089 230.445 497.336 227.644 503.049 226.509C508.762 225.374 514.684 225.957 520.066 228.183C525.447 230.409 530.047 234.178 533.283 239.015C536.519 243.851 538.246 249.537 538.246 255.354C538.238 263.151 535.132 270.627 529.611 276.14C524.089 281.654 516.603 284.755 508.795 284.764V284.764ZM508.795 227.014C503.182 227.014 497.695 228.676 493.028 231.79C488.361 234.904 484.723 239.33 482.575 244.509C480.427 249.687 479.865 255.385 480.96 260.883C482.055 266.38 484.758 271.43 488.727 275.394C492.696 279.357 497.753 282.056 503.258 283.15C508.764 284.243 514.47 283.682 519.656 281.537C524.842 279.392 529.274 275.76 532.392 271.099C535.511 266.438 537.175 260.959 537.175 255.354C537.167 247.84 534.174 240.637 528.854 235.324C523.533 230.011 516.319 227.022 508.795 227.014Z" fill="#3F3D56"/>
</g>
<defs>
<clipPath id="clip0_33_31">
<rect width="610" height="350" fill="white"/>
</clipPath>
</defs>
</svg>
